<!-- Generated by IcoMoon.io -->
<svg version="1.1" xmlns="http://www.w3.org/2000/svg" width="32" height="32" viewBox="0 0 32 32">
<title>grid</title>
<path d="M24.547 11.752v-4.298h-4.298v4.298h4.298zM24.547 18.149v-4.298h-4.298v4.298h4.298zM24.547 24.547v-4.298h-4.298v4.298h4.298zM18.149 11.752v-4.298h-4.298v4.298h4.298zM18.149 18.149v-4.298h-4.298v4.298h4.298zM18.149 24.547v-4.298h-4.298v4.298h4.298zM11.752 11.752v-4.298h-4.298v4.298h4.298zM11.752 18.149v-4.298h-4.298v4.298h4.298zM11.752 24.547v-4.298h-4.298v4.298h4.298zM24.547 5.354c1.15 0 2.099 0.95 2.099 2.099v17.093c0 1.15-0.95 2.099-2.099 2.099h-17.093c-1.15 0-2.099-0.95-2.099-2.099v-17.093c0-1.15 0.95-2.099 2.099-2.099h17.093z"></path>
</svg>
