<!-- Generated by IcoMoon.io -->
<svg version="1.1" xmlns="http://www.w3.org/2000/svg" width="32" height="32" viewBox="0 0 32 32">
<title>search</title>
<path d="M13.066 18.38c2.934 0 5.314-2.38 5.314-5.314s-2.38-5.314-5.314-5.314-5.314 2.38-5.314 5.314 2.38 5.314 5.314 5.314zM20.151 18.38l5.867 5.867-1.771 1.771-5.867-5.867v-0.941l-0.332-0.332c-1.328 1.162-3.1 1.827-4.982 1.827-4.262 0-7.694-3.376-7.694-7.638s3.432-7.694 7.694-7.694 7.638 3.432 7.638 7.694c0 1.882-0.664 3.653-1.827 4.982l0.332 0.332h0.941z"></path>
</svg>
